<svg xmlns="http://www.w3.org/2000/svg" viewBox="0 0 692.3 692.3" xmlns:v="https://vecta.io/nano"><defs><linearGradient id="A" x1="508.2" x2="288.5" y1="152.8" y2="573.6" gradientUnits="userSpaceOnUse"><stop offset="0" stop-color="#00ffa3"/><stop offset="1" stop-color="#dc1fff"/></linearGradient><linearGradient id="B" x1="412.1" x2="192.5" y1="102.7" y2="523.5" gradientUnits="userSpaceOnUse"><stop offset="0" stop-color="#00ffa3"/><stop offset="1" stop-color="#dc1fff"/></linearGradient><linearGradient id="C" x1="459.9" x2="240.2" y1="127.6" y2="548.4" gradientUnits="userSpaceOnUse"><stop offset="0" stop-color="#00ffa3"/><stop offset="1" stop-color="#dc1fff"/></linearGradient></defs><circle cx="346.1" cy="346.1" r="346.1"/><path d="M211.9 428.2c2.4-2.4 5.7-3.8 9.2-3.8h317.4c5.8 0 8.7 7 4.6 11.1l-62.7 62.7c-2.4 2.4-5.7 3.8-9.2 3.8H153.8c-5.8 0-8.7-7-4.6-11.1z" fill="url(#A)"/><path d="M211.9 194.1c2.5-2.4 5.8-3.8 9.2-3.8h317.4c5.8 0 8.7 7 4.6 11.1l-62.7 62.7c-2.4 2.4-5.7 3.8-9.2 3.8H153.8c-5.8 0-8.7-7-4.6-11.1z" fill="url(#B)"/><path d="M480.4 310.4c-2.4-2.4-5.7-3.8-9.2-3.8H153.8c-5.8 0-8.7 7-4.6 11.1l62.7 62.7c2.4 2.4 5.7 3.8 9.2 3.8h317.4c5.8 0 8.7-7 4.6-11.1z" fill="url(#C)"/></svg>