<svg xmlns="http://www.w3.org/2000/svg" viewBox="0 0 2500 2500" xmlns:v="https://vecta.io/nano"><path d="M1250 0c690.3 0 1250 559.7 1250 1250s-559.7 1250-1250 1250S0 1940.5 0 1250 559.6 0 1250 0" fill="#24a27a"/><path d="M1404.3 1083.5v-186h425.2V614.2H671.6v283.3h425.3v185.8c-345.6 15.9-605.5 84.3-605.5 166.3s260 150.5 605.5 166.4v595.6h307.5v-595.7c345-15.9 604.3-84.3 604.3-166.2s-259.3-150.3-604.3-166.2m0 282.1c-8.7.4-53.2 3.1-152.5 3.1s-135.2-2.3-154.9-3.3v.2c-305.3-13.5-533.3-66.7-533.3-130.3S791.6 1118.6 1097 1105v207.6c20 1.4 77.2 4.8 156.1 4.8s142.5-4 151.3-4.8V1105c304.8 13.6 532.1 66.8 532.1 130.2s-227.5 116.6-532.1 130.2" fill="#fff"/></svg>